<svg width="424" height="15" viewBox="0 0 424 15" fill="none" xmlns="http://www.w3.org/2000/svg">
<path d="M172.256 12H173.872V2.51204H177.488V1.00804H168.656V2.51204H172.256V12Z" fill="#8989A2"/>
<path d="M180.941 5.31204V3.72804H179.357V12H180.941V7.29604C181.085 5.85604 182.301 4.91204 184.013 4.91204V3.53604C182.589 3.53604 181.469 4.22404 180.941 5.31204Z" fill="#8989A2"/>
<path d="M191.254 3.72804V9.08804C191.126 10.064 190.134 10.816 188.982 10.816C187.862 10.816 187.078 9.95204 187.078 8.72004V3.72804H185.526V8.99204C185.526 10.864 186.806 12.192 188.63 12.192C189.75 12.192 190.758 11.616 191.254 10.8V12H192.838V3.72804H191.254Z" fill="#8989A2"/>
<path d="M198.128 12.192C199.936 12.192 201.264 11.2 201.264 9.63204C201.264 7.98404 199.808 7.53604 198.448 7.13604C197.056 6.70404 196.544 6.51204 196.544 5.87204C196.544 5.24804 197.184 4.89604 198 4.89604C198.72 4.89604 199.552 5.16804 200.352 5.66404L201.056 4.49604C200.16 3.90404 199.072 3.53604 198 3.53604C196.24 3.53604 194.976 4.52804 194.992 6.04804C194.992 7.39204 195.936 7.93604 197.84 8.46404C198.864 8.75204 199.712 8.99204 199.712 9.76004C199.712 10.4 199.072 10.832 198.144 10.832C197.168 10.832 196.224 10.464 195.344 9.82404L194.592 10.96C195.584 11.76 196.912 12.192 198.128 12.192Z" fill="#8989A2"/>
<path d="M206.977 10.512C206.801 10.688 206.481 10.816 206.129 10.816C205.665 10.816 205.281 10.4 205.281 9.82404V5.07204H207.233V3.72804H205.281V1.45604H203.729V3.72804H202.481V5.07204H203.729V9.93604C203.729 11.264 204.625 12.192 205.905 12.192C206.497 12.192 207.105 11.968 207.553 11.6L206.977 10.512Z" fill="#8989A2"/>
<path d="M212.96 10.784C211.536 10.784 210.528 9.79204 210.32 8.41604H216.832C216.832 5.45604 215.376 3.53604 212.848 3.53604C210.56 3.53604 208.72 5.36004 208.72 7.84004C208.72 10.384 210.672 12.192 212.976 12.192C214.144 12.192 215.584 11.696 216.32 10.912L215.328 9.88804C214.832 10.4 213.824 10.784 212.96 10.784ZM212.912 4.94404C214.336 4.94404 215.12 5.87204 215.296 7.15204H210.336C210.592 5.80804 211.632 4.94404 212.912 4.94404Z" fill="#8989A2"/>
<path d="M225.036 0.81604V5.15204C224.396 4.14404 223.372 3.53604 222.092 3.53604C219.916 3.53604 218.284 5.32804 218.284 7.85604C218.284 10.4 219.916 12.192 222.092 12.192C223.372 12.192 224.396 11.584 225.036 10.56V12H226.604V0.81604H225.036ZM222.476 10.816C220.956 10.816 219.884 9.58404 219.884 7.85604C219.884 6.12804 220.956 4.91204 222.476 4.91204C223.964 4.91204 225.036 6.12804 225.036 7.85604C225.036 9.58404 223.964 10.816 222.476 10.816Z" fill="#8989A2"/>
<path d="M238.15 3.53604C236.87 3.53604 235.846 4.14404 235.206 5.15204V0.81604H233.638V12H235.206V10.56C235.846 11.584 236.87 12.192 238.15 12.192C240.326 12.192 241.958 10.4 241.958 7.85604C241.958 5.32804 240.326 3.53604 238.15 3.53604ZM237.766 10.816C236.278 10.816 235.206 9.58404 235.206 7.85604C235.206 6.12804 236.278 4.91204 237.766 4.91204C239.286 4.91204 240.358 6.12804 240.358 7.85604C240.358 9.58404 239.286 10.816 237.766 10.816Z" fill="#8989A2"/>
<path d="M245.327 14.88C246.511 14.864 247.391 14.24 247.983 12.752L251.631 3.72804H249.983L247.471 10.256L244.815 3.72804H243.119L246.671 12.048L246.255 12.928C245.983 13.408 245.631 13.568 245.119 13.568C244.799 13.568 244.431 13.488 244.111 13.312L243.759 14.528C244.191 14.752 244.767 14.88 245.327 14.88Z" fill="#8989A2"/>
<path d="M0 6H144" stroke="#D6D6D6"/>
<path d="M280 6H424" stroke="#D6D6D6"/>
</svg>
